HIERARCHY
ROOT Hips
{
	OFFSET 0.00000 0.00000 0.00000
	CHANNELS 6 Xposition Yposition Zposition Zrotation Yrotation Xrotation 
	JOINT LHipJoint
	{
		OFFSET 0 0 0
		CHANNELS 3 Zrotation Yrotation Xrotation
		JOINT LeftUpLeg
		{
			OFFSET 1.40252 -1.71424 0.59123
			CHANNELS 3 Zrotation Yrotation Xrotation
			JOINT LeftLeg
			{
				OFFSET 2.50071 -6.87065 0.00000
				CHANNELS 3 Zrotation Yrotation Xrotation
				JOINT LeftFoot
				{
					OFFSET 2.50834 -6.89162 0.00000
					CHANNELS 3 Zrotation Yrotation Xrotation
					JOINT LeftToeBase
					{
						OFFSET 0.21528 -0.59149 1.64448
						CHANNELS 3 Zrotation Yrotation Xrotation
						End Site
						{
							OFFSET 0.00000 -0.00000 0.87921
						}
					}
				}
			}
		}
	}
	JOINT RHipJoint
	{
		OFFSET 0 0 0
		CHANNELS 3 Zrotation Yrotation Xrotation
		JOINT RightUpLeg
		{
			OFFSET -1.53651 -1.71424 0.59123
			CHANNELS 3 Zrotation Yrotation Xrotation
			JOINT RightLeg
			{
				OFFSET -2.45783 -6.75285 0.00000
				CHANNELS 3 Zrotation Yrotation Xrotation
				JOINT RightFoot
				{
					OFFSET -2.51921 -6.92147 0.00000
					CHANNELS 3 Zrotation Yrotation Xrotation
					JOINT RightToeBase
					{
						OFFSET -0.21777 -0.59831 1.59676
						CHANNELS 3 Zrotation Yrotation Xrotation
						End Site
						{
							OFFSET -0.00000 -0.00000 0.85779
						}
					}
				}
			}
		}
	}
	JOINT LowerBack
	{
		OFFSET 0 0 0
		CHANNELS 3 Zrotation Yrotation Xrotation
		JOINT Spine
		{
			OFFSET 0.02212 2.07622 0.03776
			CHANNELS 3 Zrotation Yrotation Xrotation
			JOINT Spine1
			{
				OFFSET -0.00949 2.08009 -0.00123
				CHANNELS 3 Zrotation Yrotation Xrotation
				JOINT Neck
				{
					OFFSET 0 0 0
					CHANNELS 3 Zrotation Yrotation Xrotation
					JOINT Neck1
					{
						OFFSET 0.00288 1.67184 0.11155
						CHANNELS 3 Zrotation Yrotation Xrotation
						JOINT Head
						{
							OFFSET -0.02412 1.66997 -0.22040
							CHANNELS 3 Zrotation Yrotation Xrotation
							End Site
							{
								OFFSET -0.01026 1.69043 -0.08683
							}
						}
					}
				}
				JOINT LeftShoulder
				{
					OFFSET 0 0 0
					CHANNELS 3 Zrotation Yrotation Xrotation
					JOINT LeftArm
					{
						OFFSET 3.97941 0.74048 0.81462
						CHANNELS 3 Zrotation Yrotation Xrotation
						JOINT LeftForeArm
						{
							OFFSET 5.01834 -0.00000 -0.00000
							CHANNELS 3 Zrotation Yrotation Xrotation
							JOINT LeftHand
							{
								OFFSET 3.48690 -0.00000 0.00000
								CHANNELS 3 Zrotation Yrotation Xrotation
								JOINT LeftFingerBase
								{
									OFFSET 0 0 0
									CHANNELS 3 Zrotation Yrotation Xrotation
									JOINT LeftHandIndex1
									{
										OFFSET 0.76799 -0.00000 0.00000
										CHANNELS 3 Zrotation Yrotation Xrotation
										End Site
										{
											OFFSET 0.61917 -0.00000 0.00000
										}
									}
								}
								JOINT LThumb
								{
									OFFSET 0 0 0
									CHANNELS 3 Zrotation Yrotation Xrotation
									End Site
									{
										OFFSET 0.62863 -0.00000 0.62863
									}
								}
							}
						}
					}
				}
				JOINT RightShoulder
				{
					OFFSET 0 0 0
					CHANNELS 3 Zrotation Yrotation Xrotation
					JOINT RightArm
					{
						OFFSET -3.88702 1.02123 0.44091
						CHANNELS 3 Zrotation Yrotation Xrotation
						JOINT RightForeArm
						{
							OFFSET -4.70164 -0.00000 0.00000
							CHANNELS 3 Zrotation Yrotation Xrotation
							JOINT RightHand
							{
								OFFSET -3.49911 -0.00000 0.00000
								CHANNELS 3 Zrotation Yrotation Xrotation
								JOINT RightFingerBase
								{
									OFFSET 0 0 0
									CHANNELS 3 Zrotation Yrotation Xrotation
									JOINT RightHandIndex1
									{
										OFFSET -0.73933 -0.00000 0.00000
										CHANNELS 3 Zrotation Yrotation Xrotation
										End Site
										{
											OFFSET -0.59607 -0.00000 0.00000
										}
									}
								}
								JOINT RThumb
								{
									OFFSET 0 0 0
									CHANNELS 3 Zrotation Yrotation Xrotation
									End Site
									{
										OFFSET -0.60517 -0.00000 0.60517
									}
								}
							}
						}
					}
				}
			}
		}
	}
}
MOTION
Frames: 15
Frame Time: .0083333
0.9932 17.4436 -5.2946 725.4410 82.3251 14.8813 0.0000 0.0000 0.0000 -22.2780 -9.3878 -18.7774 1.5179 7.7801 22.0481 1.4479 -8.3932 -21.5370 3.2949 -11.1578 -32.8138 0.0000 0.0000 0.0000 4.4084 1.6641 -26.5087 -5.0825 -13.4761 41.1780 0.2459 -15.6201 -19.4627 -1.8067 -8.4512 24.0930 1.0415 2.0724 -1.6558 -0.9110 2.7580 -1.0117 -1.4691 1.3767 -0.0148 1.2883 0.1139 -7.5427 -6.6493 1.3280 16.1800 -2.2154 0.3133 6.1924 0.0000 -0.0000 0.0000 -83.9843 2.7776 83.7474 112.8875 -57.9251 -79.6831 -0.0000 0.0000 -12.2312 9.9065 50.5052 7.6755 -7.1250 0.0000 -0.0000 -59.2526 74.0097 -44.1462 0.0000 -0.0000 0.0000 84.6471 -10.3759 57.0520 -120.9906 56.0401 -86.4819 0.0000 -0.0000 -30.4360 -17.5795 -8.8635 2.7948 7.1250 -0.0000 -0.0000 8.0959 -39.1479 1.1764
0.9637 17.4861 -5.2069 734.5750 84.5410 24.0189 0.0000 0.0000 0.0000 -22.7063 -8.8939 -18.3774 1.3235 7.2858 20.5648 1.3591 -10.4497 -21.0298 3.7364 -11.8011 -35.0319 0.0000 0.0000 0.0000 3.3574 2.0179 -24.3477 -3.9953 -12.1542 36.2795 0.4885 -16.7822 -18.4120 -2.1156 -9.1029 26.1177 0.3947 1.4041 -2.1277 -0.9777 1.8774 -0.8426 -1.1760 0.9408 0.3747 0.8019 -0.1037 -7.6571 -6.1580 1.0080 16.1314 -2.0015 0.1625 6.1810 -0.0000 0.0000 0.0000 -84.8897 1.0070 84.5458 113.6644 -57.7745 -80.3408 -0.0000 0.0000 -13.0016 9.5603 50.7027 7.4260 -7.1250 0.0000 -0.0000 -60.1144 73.9662 -44.8431 -0.0000 0.0000 0.0000 83.2937 -9.8582 56.1841 -124.7413 54.9081 -89.5725 0.0000 -0.0000 -29.6739 -16.7238 -8.8973 2.6607 7.1250 -0.0000 -0.0000 8.8348 -39.1177 1.2923
0.9507 17.5015 -5.0879 737.5260 86.5734 26.6008 0.0000 0.0000 0.0000 -21.7408 -7.7510 -17.7926 1.1488 6.8058 19.1412 1.2208 -12.5692 -20.3550 4.0133 -12.1780 -36.3647 0.0000 0.0000 0.0000 3.7371 3.2513 -21.7002 -3.1277 -10.8990 31.9399 0.7476 -17.9044 -16.9887 -2.4405 -9.7289 28.1034 0.3910 0.8919 -2.4857 -0.7796 1.1919 -0.4700 -0.9784 0.5998 0.9361 0.4803 -0.2952 -7.8877 -5.7334 0.7075 16.0367 -1.8355 0.0235 6.1791 -0.0000 -0.0000 0.0000 -85.6740 -0.7332 85.0265 114.4505 -57.6160 -81.0052 -0.0000 0.0000 -14.2075 5.9406 51.8957 4.6810 -7.1250 0.0000 -0.0000 -66.1071 73.1002 -49.1526 -0.0000 -0.0000 0.0000 81.9338 -8.9327 55.3804 -128.1847 53.7019 -92.3694 0.0000 -0.0000 -29.7177 -17.1632 -9.5175 2.9234 7.1250 -0.0000 -0.0000 8.5641 -39.7905 1.1091
0.9140 17.5153 -4.9938 755.6890 88.2577 45.0363 0.0000 0.0000 0.0000 -21.2402 -6.7882 -18.1028 1.0149 6.4094 17.9769 0.9811 -15.1706 -19.2921 4.0526 -12.2301 -36.5509 0.0000 0.0000 0.0000 3.8032 4.2422 -20.3311 -2.5567 -9.9404 28.7838 0.8893 -18.3067 -15.5622 -2.7292 -10.2432 29.7678 0.4924 0.4605 -3.0221 -0.8597 0.6157 -0.4595 -1.1320 0.3140 1.2374 0.2714 -0.4918 -8.0963 -5.3025 0.3907 16.0279 -1.6888 -0.1159 6.2018 -0.0000 -0.0000 0.0000 -86.2731 -2.1739 85.3424 115.2572 -57.4467 -81.6859 -0.0000 0.0000 -15.7517 1.8394 53.4592 1.4780 -7.1250 0.0000 -0.0000 -73.0572 72.1203 -54.3570 -0.0000 -0.0000 0.0000 80.7374 -7.9297 54.2526 -131.1544 52.5192 -94.7448 0.0000 -0.0000 -28.8047 -17.6787 -10.5515 3.3403 7.1250 -0.0000 -0.0000 8.3016 -40.9015 0.8456
0.8966 17.5193 -4.8932 831.3560 88.2010 120.1710 0.0000 0.0000 0.0000 -21.7056 -5.8891 -17.5134 0.9132 6.0890 17.0430 0.6835 -18.0096 -18.2369 4.0787 -12.2644 -36.6738 0.0000 0.0000 0.0000 3.3994 4.3332 -18.2678 -2.1567 -9.1851 26.3761 0.9111 -18.2023 -14.8301 -2.9773 -10.6582 31.1355 -0.1739 -0.1080 -2.9291 -1.0272 -0.1163 -0.2246 -0.9597 -0.0535 1.4097 -0.1765 -0.6298 -8.2196 -4.7780 0.1722 15.9613 -1.4646 -0.2116 6.1969 -0.0000 -0.0000 0.0000 -86.8280 -3.4477 85.4985 115.9332 -57.2997 -82.2552 -0.0000 0.0000 -17.1577 -2.0146 54.7270 -1.6450 -7.1250 0.0000 -0.0000 -78.5400 71.0813 -58.3238 -0.0000 -0.0000 0.0000 79.5032 -6.7423 52.7432 -133.4890 51.4876 -96.5848 0.0000 -0.0000 -26.7050 -18.1644 -11.6524 3.7912 7.1250 -0.0000 -0.0000 8.0819 -42.0857 0.5853
0.8531 17.5376 -4.7983 863.6650 87.9838 152.6590 0.0000 0.0000 0.0000 -20.6038 -5.1603 -17.8032 0.8290 5.8087 16.2304 0.4235 -19.6618 -17.1719 4.0725 -12.2563 -36.6447 0.0000 0.0000 0.0000 4.4223 5.3632 -17.8554 -2.0651 -9.0005 25.7968 0.9982 -19.0244 -15.5418 -2.9250 -10.5726 30.8517 0.2947 -0.2223 -3.0753 -0.9168 -0.2865 -0.3560 -1.1167 -0.1368 1.3525 -0.2927 -0.7421 -8.0187 -4.6419 -0.0112 15.6224 -1.4122 -0.2918 6.0508 -0.0000 -0.0000 0.0000 -87.4154 -4.4128 85.6144 116.1625 -57.2487 -82.4481 -0.0000 0.0000 -17.5879 -1.8269 55.6363 -1.5082 -7.1250 0.0000 -0.0000 -81.0748 71.3223 -61.1062 -0.0000 -0.0000 0.0000 78.3330 -5.5303 50.9336 -135.3114 50.6150 -98.0022 0.0000 -0.0000 -23.9466 -18.8856 -12.6197 4.2744 7.1250 -0.0000 -0.0000 7.6298 -43.1632 0.3480
0.8475 17.5352 -4.6985 874.7580 86.6783 163.5000 0.0000 0.0000 0.0000 -20.5666 -4.7170 -17.3179 0.7394 5.4933 15.3212 0.0769 -21.5718 -15.7797 3.7851 -11.8688 -35.2693 0.0000 0.0000 0.0000 4.9310 4.8554 -17.0225 -2.0497 -8.9689 25.6981 1.0914 -20.1097 -16.9967 -2.8161 -10.3912 30.2530 0.0981 -0.4558 -3.2339 -1.0398 -0.5870 -0.3096 -1.1469 -0.2866 1.4831 -0.4473 -0.9079 -7.9258 -4.2589 -0.2874 15.5218 -1.2847 -0.4052 5.9977 0.0000 -0.0000 0.0000 -87.8791 -4.9942 85.6171 116.2120 -57.2376 -82.4897 -0.0000 0.0000 -17.4552 -1.3856 55.8547 -1.1468 -7.1250 0.0000 -0.0000 -81.5497 71.5106 -61.8063 0.0000 -0.0000 0.0000 77.4374 -4.3250 48.8006 -136.5081 50.0079 -98.9231 0.0000 -0.0000 -20.4810 -19.1123 -13.0558 4.4759 7.1250 -0.0000 -0.0000 7.5142 -43.6412 0.2535
0.8109 17.5343 -4.5861 879.9320 85.8767 168.5890 0.0000 0.0000 0.0000 -20.0636 -4.7205 -17.1806 0.6834 5.2854 14.7245 -0.1240 -22.3693 -14.8322 3.5851 -11.5868 -34.2855 0.0000 0.0000 0.0000 5.7736 4.9464 -16.6982 -2.1033 -9.0781 26.0398 1.0822 -20.8343 -19.0680 -2.6380 -10.0846 29.2510 -0.0253 -0.4987 -3.0891 -1.1433 -0.6385 -0.3983 -1.1839 -0.3129 1.3102 -0.5628 -1.1160 -7.8441 -3.9610 -0.6258 15.2073 -1.1935 -0.5528 5.8792 0.0000 -0.0000 0.0000 -88.1041 -5.4078 85.3698 116.5918 -57.1518 -82.8090 -0.0000 0.0000 -17.5978 0.8220 56.1410 0.6826 -7.1250 0.0000 -0.0000 -81.6713 72.3179 -62.8978 0.0000 -0.0000 0.0000 76.7392 -3.0526 46.4780 -137.2061 49.6408 -99.4565 0.0000 -0.0000 -16.8981 -19.3832 -13.2711 4.6175 7.1250 -0.0000 -0.0000 7.3137 -43.8957 0.2005
0.7840 17.5316 -4.4713 884.0840 85.2907 172.7700 0.0000 0.0000 0.0000 -19.4057 -5.0591 -16.9262 0.6213 5.0442 14.0346 -0.2194 -22.5428 -14.2291 3.5383 -11.5193 -34.0520 0.0000 0.0000 0.0000 6.7718 4.8939 -16.3343 -2.0523 -8.9743 25.7149 1.0865 -21.5994 -20.8524 -2.4298 -9.7092 28.0401 -0.0246 -0.4615 -3.2720 -1.2580 -0.5845 -0.4404 -1.3012 -0.2848 1.3694 -0.6486 -1.2992 -7.7769 -3.5689 -0.9498 14.8626 -1.0762 -0.6865 5.7559 -0.0000 -0.0000 0.0000 -88.1341 -5.6362 84.8399 117.1490 -57.0230 -83.2768 -0.0000 0.0000 -17.6419 4.1560 55.3939 3.4226 -7.1250 0.0000 -0.0000 -78.2167 73.3783 -60.7588 -0.0000 -0.0000 0.0000 76.2865 -1.7472 44.0295 -137.5719 49.4445 -99.7348 0.0000 -0.0000 -13.7141 -19.7460 -13.6423 4.8393 7.1250 -0.0000 -0.0000 7.0610 -44.3244 0.1184
0.7640 17.5251 -4.3574 883.5610 84.6711 172.1490 0.0000 0.0000 0.0000 -19.2220 -5.4315 -16.3713 0.5517 4.7582 13.2202 -0.3226 -22.6347 -13.4874 3.5110 -11.4795 -33.9147 0.0000 0.0000 0.0000 7.3101 4.2769 -15.6106 -1.8598 -8.5677 24.4522 1.1522 -22.4720 -22.0632 -2.3138 -9.4913 27.3446 -0.2232 -0.3749 -3.4638 -1.5590 -0.4509 -0.4055 -1.4948 -0.2163 1.5148 -0.8579 -1.5580 -7.6445 -2.8423 -1.4077 14.5583 -0.8429 -0.8691 5.6379 0.0000 0.0000 0.0000 -87.9789 -5.5389 84.0465 117.6856 -56.8958 -83.7265 -0.0000 0.0000 -17.3001 5.6654 53.8902 4.5822 -7.1250 0.0000 -0.0000 -72.6594 73.6088 -55.7287 0.0000 0.0000 0.0000 76.2224 -0.5448 41.4031 -137.5482 49.4572 -99.7168 0.0000 -0.0000 -10.4766 -20.0177 -13.7219 4.9392 7.1250 -0.0000 -0.0000 6.8300 -44.4393 0.0950
0.7423 17.5140 -4.2422 881.3400 84.0544 169.7560 0.0000 0.0000 0.0000 -19.2728 -5.7667 -15.7967 0.4928 4.5010 12.4907 -0.4670 -22.8641 -12.5068 3.4369 -11.3709 -33.5411 0.0000 0.0000 0.0000 7.5751 3.1435 -14.7323 -1.5987 -7.9748 22.6375 1.2357 -23.2161 -22.8070 -2.2913 -9.4481 27.2074 -0.6527 -0.2502 -3.4288 -1.8557 -0.2592 -0.4457 -1.5491 -0.1200 1.4593 -0.9073 -1.9043 -7.2607 -2.5682 -1.9417 14.0250 -0.7777 -1.1097 5.4032 -0.0000 0.0000 0.0000 -87.8300 -5.0482 83.0938 118.3681 -56.7293 -84.2977 -0.0000 0.0000 -16.8556 4.0273 53.4448 3.2370 -7.1250 0.0000 -0.0000 -71.9572 72.8985 -54.2491 -0.0000 0.0000 0.0000 76.4299 0.4525 38.6242 -137.1345 49.6789 -99.4019 0.0000 -0.0000 -6.7385 -20.2878 -13.5891 4.9640 7.1250 -0.0000 -0.0000 6.5569 -44.3319 0.1086
0.7170 17.4992 -4.1185 881.9470 83.7128 170.2740 0.0000 0.0000 0.0000 -18.8092 -6.1729 -15.4494 0.4493 4.3004 11.9233 -0.6327 -22.9850 -11.2049 3.1931 -11.0012 -32.2840 0.0000 0.0000 0.0000 8.2310 2.1061 -14.0340 -1.3657 -7.3964 20.8952 1.2586 -23.7801 -23.8232 -2.4403 -9.7286 28.1022 -1.0045 -0.0332 -3.1703 -1.9110 0.0365 -0.7033 -1.3940 0.0277 1.0568 -1.0317 -2.1892 -6.9607 -2.2890 -2.3566 13.9687 -0.6937 -1.2966 5.3359 0.0000 -0.0000 0.0000 -87.8150 -4.1010 81.9815 119.1350 -56.5360 -84.9383 -0.0000 0.0000 -16.4421 8.6761 51.6609 6.8252 -7.1250 0.0000 -0.0000 -63.7699 74.0219 -48.1016 0.0000 -0.0000 0.0000 76.9141 1.1261 35.7973 -136.5033 50.0104 -98.9194 0.0000 -0.0000 -2.8434 -20.2733 -13.3297 4.8677 7.1250 -0.0000 -0.0000 6.5186 -44.0582 0.1522
0.6448 17.5147 -4.0470 873.1330 83.0429 161.9340 0.0000 0.0000 0.0000 -20.1757 -6.2564 -16.5671 0.5078 4.5681 12.6806 -0.9769 -24.3621 -9.6055 2.6622 -10.1270 -29.3889 0.0000 0.0000 0.0000 7.2006 0.0195 -14.6471 -1.2431 -7.0697 19.9219 1.0668 -23.0929 -24.3096 -2.5158 -9.8665 28.5456 -1.5110 0.1650 -3.0219 -2.6121 0.3302 -1.0155 -1.8192 0.1822 0.6602 -1.2127 -2.4671 -6.7952 -1.7280 -2.8113 13.5665 -0.5139 -1.4918 5.1908 -0.0000 -0.0000 0.0000 -87.4754 -3.3968 80.6235 119.7736 -56.3700 -85.4705 -0.0000 0.0000 -16.7829 9.3721 52.0731 7.4176 -7.1250 0.0000 -0.0000 -64.7523 74.4317 -49.4250 -0.0000 -0.0000 0.0000 78.0272 1.8862 33.0995 -135.6690 50.4365 -98.2782 0.0000 0.0000 0.7868 -20.4502 -12.7257 4.6959 7.1250 -0.0000 -0.0000 6.2430 -43.4435 0.2408
0.6524 17.4702 -3.8591 879.6960 83.3275 168.0370 0.0000 0.0000 0.0000 -18.1202 -5.3329 -17.2624 0.5896 4.9163 13.6701 -1.2251 -25.3790 -8.5606 2.3331 -9.5280 -27.4614 0.0000 0.0000 0.0000 8.9802 1.5575 -12.9952 -1.0787 -6.6016 18.5402 1.1031 -24.2972 -26.3820 -2.7692 -10.3117 29.9920 -1.6877 0.5343 -3.0366 -2.3853 0.8251 -0.8425 -1.4683 0.4265 0.8502 -1.8015 -2.8112 -6.8061 -0.9517 -3.3305 13.1519 -0.2078 -1.7277 5.0873 0.0000 -0.0000 0.0000 -87.1129 -2.7963 79.1383 120.1524 -56.2692 -85.7857 -0.0000 0.0000 -17.8549 11.1568 51.8311 8.8138 -7.1250 0.0000 -0.0000 -62.9303 75.0185 -48.4369 0.0000 -0.0000 0.0000 79.3340 2.5666 30.5554 -134.6726 50.9279 -97.5073 0.0000 0.0000 4.2575 -20.6437 -12.2375 4.5658 7.1250 -0.0000 -0.0000 5.9803 -42.9505 0.3036
0.6203 17.4551 -3.7202 883.1420 83.3255 171.3840 0.0000 0.0000 0.0000 -17.0325 -6.3609 -17.8577 0.7271 5.4484 15.1920 -1.0587 -24.6860 -9.2392 2.3826 -9.6213 -27.7589 0.0000 0.0000 0.0000 9.9083 1.7065 -12.5884 -1.0077 -6.3875 17.9130 1.0910 -24.3654 -26.6212 -2.7336 -10.2508 29.7928 -1.5010 0.9265 -2.9507 -2.4605 1.3403 -0.8586 -1.6326 0.6846 0.7985 -1.9758 -3.1783 -6.6335 -0.5356 -3.8754 12.8151 -0.0799 -1.9778 4.9681 0.0000 -0.0000 0.0000 -86.7037 -2.1544 77.6973 120.3306 -56.2212 -85.9338 -0.0000 0.0000 -19.1206 12.9858 51.3024 10.2028 -7.1250 0.0000 -0.0000 -59.9870 75.5158 -46.3618 0.0000 -0.0000 0.0000 80.9861 3.1359 28.2945 -133.3366 51.5578 -96.4655 0.0000 0.0000 6.6802 -21.9630 -11.2968 4.5169 7.1250 -0.0000 -0.0000 4.6457 -42.0894 0.3344
